# xmcd CD database file
#
# Track frame offsets:
#	150
#	15799
#	34318
#	50281
#	68055
#	88108
#	111626
#	124312
#	148464
#	172759
#	186937
#
# Disc length: 2819 seconds
#
# Revision: 8
# Processed by: cddbd v1.5.2PL0 Copyright (c) Steve Scherf et al.
# Submitted via: CDex 1.70beta2
#
DISCID=9a0b010b
DTITLE=שולי רנד - נקודה טובה
DYEAR=2008
DGENRE=Hebrew
TTITLE0=מה התכלית
TTITLE1=אייכה
TTITLE2=ערפל
TTITLE3=סגולה
TTITLE4=המשורר
TTITLE5=בן המלך שעשוי מאבנים טובות
TTITLE6=נקודה טובה
TTITLE7=מוחין דקטנות
TTITLE8=רפא-אל
TTITLE9=אחותי
TTITLE10=מתוך שינה
EXTD=YEAR: 2008
EXTT0=
EXTT1=
EXTT2=
EXTT3=
EXTT4=
EXTT5=
EXTT6=
EXTT7=
EXTT8=
EXTT9=
EXTT10=
PLAYORDER=
